<?xml version="1.0" standalone="no"?>
<!DOCTYPE svg PUBLIC "-//W3C//DTD SVG 20010904//EN"
 "http://www.w3.org/TR/2001/REC-SVG-20010904/DTD/svg10.dtd">
<svg version="1.0" xmlns="http://www.w3.org/2000/svg"
 width="342.000000pt" height="70.000000pt" viewBox="0 0 342.000000 70.000000"
 preserveAspectRatio="xMidYMid meet">

<g transform="translate(0.000000,70.000000) scale(0.100000,-0.100000)"
fill="#000000" stroke="none">
<path d="M373 645 c-8 -23 1 -28 39 -17 18 5 46 5 62 1 34 -10 47 -4 39 16 -8
22 -131 21 -140 0z"/>
<path d="M330 585 c-46 -24 -113 -85 -93 -85 7 0 14 -8 17 -17 3 -11 4 -8 3 7
-1 14 3 25 8 25 6 0 9 -4 7 -8 -1 -5 2 -6 8 -2 5 3 10 17 10 31 0 13 5 24 11
24 6 0 9 -7 5 -15 -3 -8 -1 -15 3 -15 5 0 11 7 15 15 3 8 13 15 23 15 27 0 41
13 34 32 -5 14 -11 14 -51 -7z"/>
<path d="M507 590 c-4 -16 0 -20 21 -21 15 0 21 -3 15 -6 -15 -5 -18 -33 -4
-33 6 0 13 5 16 10 11 19 26 10 20 -11 -5 -16 -3 -20 12 -19 40 5 48 1 27 -15
-10 -8 -14 -15 -9 -16 6 -1 15 -3 20 -4 6 -2 17 -3 25 -4 10 -1 7 -6 -9 -15
l-24 -13 34 -12 c28 -11 31 -14 16 -20 -20 -7 -24 -26 -5 -26 6 0 13 -6 16
-14 3 -8 0 -11 -6 -7 -22 14 -22 -15 0 -34 l23 -20 -28 6 c-22 5 -26 3 -21
-10 3 -9 10 -16 15 -16 5 0 9 -7 9 -15 0 -12 -4 -13 -19 -6 -16 9 -18 8 -14
-9 7 -26 -41 -90 -67 -90 -10 0 -26 -10 -35 -22 -12 -16 -19 -19 -22 -10 -3 6
-9 10 -14 6 -5 -3 -9 5 -9 17 0 12 -7 31 -17 41 -18 20 -4 25 15 6 7 -7 12 -8
12 -2 0 16 -21 33 -35 27 -9 -3 -15 6 -18 24 l-4 28 -2 -28 c0 -16 -6 -27 -13
-26 -28 3 -38 -2 -37 -18 0 -11 3 -13 6 -5 8 21 50 14 67 -13 20 -30 22 -52 4
-37 -7 5 -23 8 -35 6 -23 -4 -31 10 -13 21 6 3 10 11 10 17 0 7 -6 6 -15 -2
-8 -7 -15 -23 -15 -37 0 -13 -4 -22 -9 -19 -5 4 -12 0 -15 -6 -3 -10 -8 -8
-15 4 -6 9 -26 21 -44 27 -17 6 -41 24 -52 41 -11 16 -28 30 -37 30 -10 0 -18
5 -18 11 0 6 7 9 14 6 10 -4 13 -1 10 8 -5 12 -44 29 -44 19 0 -17 32 -76 57
-105 17 -19 36 -51 43 -71 8 -21 20 -40 28 -43 10 -3 12 0 8 10 -7 20 4 19 21
-2 8 -10 11 -12 7 -4 -5 10 -1 11 17 5 13 -4 31 -7 39 -7 8 0 20 -7 27 -16 10
-14 12 -14 18 2 4 9 16 17 27 17 13 0 17 -4 11 -12 -4 -7 6 -5 21 6 23 15 30
16 37 5 7 -11 9 -10 9 3 0 12 5 15 17 11 11 -4 14 -3 9 5 -4 7 -3 12 3 12 5 0
13 10 16 23 4 12 17 33 30 47 13 14 33 45 46 70 27 54 31 155 7 211 -23 53
-75 107 -129 134 -46 24 -47 24 -52 5z m-17 -460 c8 -5 11 -12 7 -17 -4 -4
-17 -2 -27 5 -22 13 -54 16 -46 4 2 -4 -4 -9 -15 -9 -21 -2 -26 13 -6 20 21 9
71 7 87 -3z"/>
<path d="M409 563 c5 -25 6 -26 9 -6 2 17 11 23 40 26 34 3 34 4 -9 5 -45 2
-46 2 -40 -25z"/>
<path d="M440 543 c0 -7 -12 -13 -27 -13 -20 0 -24 -3 -14 -9 9 -6 10 -11 2
-15 -13 -8 6 -54 24 -58 8 -2 6 -9 -7 -22 -18 -19 -18 -19 -18 2 0 31 -17 36
-24 7 -4 -14 -13 -25 -22 -25 -9 0 -12 -5 -8 -12 6 -10 4 -10 -7 0 -7 6 -24
12 -36 12 -21 0 -23 2 -12 23 9 18 9 20 -1 10 -7 -7 -14 -20 -15 -30 -1 -10
-6 -26 -10 -36 -10 -24 -5 -27 48 -29 42 -2 47 -5 47 -25 0 -20 -5 -23 -40
-23 -22 0 -40 -4 -40 -10 0 -5 23 -10 51 -10 31 0 48 -4 44 -10 -3 -5 -24 -10
-46 -10 -24 0 -38 -4 -34 -10 3 -5 28 -10 56 -10 l49 0 0 55 0 56 45 -3 45 -3
0 -52 0 -53 43 0 c23 0 49 5 57 10 11 7 1 10 -34 10 l-48 0 3 92 c3 67 1 92
-8 95 -7 3 -13 -3 -13 -12 0 -14 -3 -15 -13 -6 -8 6 -17 8 -20 4 -4 -3 -7 -1
-7 5 0 7 6 12 13 12 21 0 34 42 21 67 -6 13 -14 20 -18 16 -4 -4 -11 -1 -16 7
-7 10 -10 11 -10 3z m25 -47 c0 -22 -14 -29 -34 -17 -19 12 -6 43 16 39 10 -2
18 -12 18 -22z m-58 -128 c-3 -7 -5 -2 -5 12 0 14 2 19 5 13 2 -7 2 -19 0 -25z
m80 0 c-3 -7 -5 -2 -5 12 0 14 2 19 5 13 2 -7 2 -19 0 -25z"/>
<path d="M206 457 c-14 -33 -15 -40 -3 -58 14 -20 14 -20 20 1 3 11 1 23 -4
26 -5 3 -9 12 -9 21 0 13 3 13 15 3 16 -14 18 -6 5 25 -7 18 -10 16 -24 -18z"/>
<path d="M309 473 c-13 -16 -12 -17 4 -4 16 13 21 21 13 21 -2 0 -10 -8 -17
-17z"/>
<path d="M591 443 c7 -12 15 -20 18 -17 3 2 -3 12 -13 22 -17 16 -18 16 -5 -5z"/>
<path d="M527 414 c-4 -4 -7 -36 -7 -71 l0 -63 45 0 c25 0 45 5 45 11 0 6 -10
10 -22 9 -46 -4 -58 0 -58 19 0 20 34 33 75 28 11 -1 20 4 19 11 -1 6 -2 20
-2 30 -2 21 -56 29 -68 10 -5 -8 -9 -7 -14 6 -3 9 -9 14 -13 10z"/>
<path d="M180 352 c0 -40 3 -48 19 -48 25 0 26 51 0 77 -19 19 -19 18 -19 -29z
m30 -13 c0 -5 -4 -9 -10 -9 -5 0 -10 7 -10 16 0 8 5 12 10 9 6 -3 10 -10 10
-16z"/>
<path d="M813 170 c0 -30 2 -44 4 -32 l5 24 25 -24 c23 -22 25 -22 37 -5 17
22 42 22 55 0 15 -26 13 -13 -5 40 -9 26 -19 47 -24 47 -4 0 -13 -20 -20 -45
l-13 -46 -23 22 -24 23 22 23 c12 13 16 23 9 23 -6 0 -14 -7 -17 -15 -8 -20
-21 -19 -27 3 -3 9 -5 -8 -4 -38z m105 -9 c-15 -5 -21 7 -13 26 7 17 8 17 15
-2 4 -11 3 -22 -2 -24z"/>
<path d="M967 214 c-11 -11 -8 -82 3 -89 6 -3 19 -3 30 0 16 5 19 14 17 48 -2
34 -6 43 -22 45 -12 2 -24 0 -28 -4z m43 -19 c0 -8 -7 -15 -15 -15 -8 0 -15 7
-15 15 0 8 7 15 15 15 8 0 15 -7 15 -15z m0 -40 c0 -8 -7 -15 -15 -15 -8 0
-15 7 -15 15 0 8 7 15 15 15 8 0 15 -7 15 -15z"/>
<path d="M1040 188 c0 -84 64 -90 66 -7 1 36 1 37 -3 9 -9 -66 -43 -78 -43
-15 0 19 -4 37 -10 40 -6 4 -10 -8 -10 -27z"/>
<path d="M1131 168 c1 -29 4 -43 6 -30 2 12 11 22 18 22 8 0 19 8 24 18 12 22
-3 42 -31 42 -15 0 -18 -8 -17 -52z m37 25 c-4 -22 -22 -20 -26 1 -2 10 3 16
13 16 10 0 15 -7 13 -17z"/>
<path d="M1201 179 c-7 -23 -10 -44 -7 -47 3 -3 6 0 6 6 0 19 38 14 49 -5 15
-26 13 -13 -5 40 -9 26 -19 47 -23 47 -4 0 -13 -18 -20 -41z m27 -18 c-15 -5
-21 7 -13 26 7 17 8 17 15 -2 4 -11 3 -22 -2 -24z"/>
<path d="M1262 213 c12 -3 18 -17 21 -46 l4 -42 1 42 c2 30 7 43 20 46 9 3 -1
5 -23 5 -22 0 -32 -2 -23 -5z"/>
<path d="M1340 170 c0 -47 2 -50 25 -50 14 0 25 5 25 10 0 6 -9 10 -20 10 -27
0 -25 28 3 33 l22 4 -22 2 c-13 0 -23 7 -23 15 0 8 10 17 23 19 19 4 18 4 -5
6 -27 1 -28 -1 -28 -49z"/>
<path d="M1411 168 c2 -52 2 -52 8 -13 l6 40 14 -33 c21 -51 31 -48 30 10 -1
47 -2 49 -8 18 l-6 -35 -14 33 c-20 47 -31 39 -30 -20z"/>
<path d="M1538 214 c-12 -11 -10 -84 2 -84 6 0 10 8 10 17 0 13 5 12 26 -8 23
-22 26 -23 35 -6 11 19 49 24 49 5 0 -6 3 -9 6 -6 7 8 -17 88 -27 88 -4 0 -13
-17 -19 -37 -17 -53 -25 -58 -43 -29 -14 21 -14 26 -2 36 8 7 15 17 15 23 0 5
-9 2 -19 -7 -18 -16 -20 -16 -23 -1 -1 9 -6 13 -10 9z m112 -46 c0 -5 -6 -8
-14 -8 -9 0 -12 7 -9 21 4 16 8 17 14 7 5 -7 9 -16 9 -20z"/>
<path d="M1681 200 c7 -14 16 -38 20 -55 l7 -30 1 28 c1 15 8 40 17 55 l16 27
-20 -22 -20 -23 -16 23 -17 22 12 -25z"/>
<path d="M1752 208 c-17 -17 -15 -63 3 -78 20 -17 54 -3 61 25 12 47 -33 84
-64 53z m46 -15 c10 -19 -1 -63 -16 -63 -19 0 -34 30 -28 55 7 29 31 33 44 8z"/>
<path d="M1841 173 c2 -45 2 -46 8 -13 l6 35 14 -33 c21 -51 31 -48 30 10 -2
51 -2 52 -8 13 l-6 -40 -14 33 c-21 50 -31 48 -30 -5z"/>
<path d="M1932 208 c-20 -20 -15 -66 9 -78 11 -7 27 -9 35 -6 16 6 20 46 4 46
-5 0 -7 -6 -4 -14 8 -21 -16 -30 -33 -13 -11 10 -13 24 -9 42 6 22 11 26 31
22 14 -2 25 0 25 4 0 13 -44 11 -58 -3z"/>
<path d="M2054 181 c1 -31 6 -47 19 -55 25 -15 47 16 46 63 l-1 36 -8 -38
c-13 -70 -44 -69 -53 3 -4 28 -4 27 -3 -9z"/>
<path d="M2142 213 c12 -3 18 -18 21 -51 l3 -47 2 47 c2 35 6 48 20 51 9 3 -1
5 -23 5 -22 0 -32 -2 -23 -5z"/>
<path d="M2206 173 c-9 -25 -14 -49 -11 -51 2 -3 7 3 11 12 7 18 44 22 44 4 0
-6 3 -9 6 -6 7 8 -17 88 -27 88 -4 0 -14 -21 -23 -47z m34 1 c0 -8 -4 -14 -10
-14 -5 0 -10 9 -10 21 0 11 5 17 10 14 6 -3 10 -13 10 -21z"/>
<path d="M2281 168 c1 -29 4 -43 6 -30 5 26 28 29 41 6 7 -12 8 -7 7 19 -3 43
-11 57 -36 57 -17 0 -19 -7 -18 -52z m39 27 c0 -8 -7 -15 -15 -15 -8 0 -15 7
-15 15 0 8 7 15 15 15 8 0 15 -7 15 -15z"/>
<path d="M2370 196 c-5 -15 -12 -39 -16 -54 -4 -23 -3 -24 6 -9 12 19 50 23
50 5 0 -6 2 -9 5 -6 6 6 -14 69 -26 82 -5 5 -13 -2 -19 -18z m30 -28 c0 -5 -6
-8 -14 -8 -9 0 -12 7 -9 21 4 16 8 17 14 7 5 -7 9 -16 9 -20z"/>
</g>
</svg>
